<svg xmlns="http://www.w3.org/2000/svg" xmlns:xlink="http://www.w3.org/1999/xlink" version="1.1" width="203" height="28" viewBox="0 0 203 28" xml:space="preserve">
<desc>Created with Fabric.js 3.5.0</desc>
<defs>
</defs>
<rect x="0" y="0" width="100%" height="100%" fill="rgba(255,255,255,0)"/>
<g transform="matrix(1 0 0 1 101.1017 14.06)" style="" id="344365">
		
<path xml:space="preserve" font-family="Poppins" font-size="24" font-style="normal" font-weight="bold" style="stroke: none; stroke-width: 1; stroke-dasharray: none; stroke-linecap: butt; stroke-dashoffset: 0; stroke-linejoin: miter; stroke-miterlimit: 4; is-custom-font: none; font-file-url: none; fill: rgb(255,255,255); fill-rule: nonzero; opacity: 1; white-space: pre;" d="M-84.04 7.54L-89.05 7.54L-94.72 0.10L-94.72 7.54L-98.82 7.54L-98.82-9.31L-94.72-9.31L-94.72-1.92L-89.10-9.31L-84.28-9.31L-90.80-1.05L-84.04 7.54ZM-82.91 0.82Q-82.91-1.24-82.13-2.80Q-81.35-4.36-80.00-5.20Q-78.66-6.04-77.00-6.04L-77.00-6.04Q-75.59-6.04-74.52-5.47Q-73.45-4.89-72.88-3.96L-72.88-3.96L-72.88-5.85L-68.77-5.85L-68.77 7.54L-72.88 7.54L-72.88 5.64Q-73.48 6.58-74.54 7.16Q-75.61 7.73-77.03 7.73L-77.03 7.73Q-78.66 7.73-80.00 6.88Q-81.35 6.03-82.13 4.46Q-82.91 2.88-82.91 0.82L-82.91 0.82ZM-72.88 0.84Q-72.88-0.69-73.73-1.58Q-74.58-2.47-75.80-2.47L-75.80-2.47Q-77.03-2.47-77.88-1.59Q-78.73-0.72-78.73 0.82L-78.73 0.82Q-78.73 2.36-77.88 3.26Q-77.03 4.16-75.80 4.16L-75.80 4.16Q-74.58 4.16-73.73 3.27Q-72.88 2.38-72.88 0.84L-72.88 0.84ZM-56.68-5.85L-52.57-5.85L-52.57 7.54L-56.68 7.54L-56.68 5.72Q-57.30 6.60-58.37 7.14Q-59.44 7.68-60.73 7.68L-60.73 7.68Q-62.27 7.68-63.44 7.00Q-64.62 6.32-65.27 5.02Q-65.92 3.72-65.92 1.97L-65.92 1.97L-65.92-5.85L-61.84-5.85L-61.84 1.42Q-61.84 2.76-61.14 3.51Q-60.44 4.25-59.27 4.25L-59.27 4.25Q-58.07 4.25-57.37 3.51Q-56.68 2.76-56.68 1.42L-56.68 1.42L-56.68-5.85ZM-44.17 7.73Q-45.92 7.73-47.29 7.13Q-48.66 6.53-49.45 5.49Q-50.24 4.44-50.34 3.15L-50.34 3.15L-46.28 3.15Q-46.21 3.84-45.64 4.28Q-45.06 4.71-44.22 4.71L-44.22 4.71Q-43.45 4.71-43.03 4.41Q-42.61 4.11-42.61 3.63L-42.61 3.63Q-42.61 3.05-43.21 2.78Q-43.81 2.50-45.16 2.16L-45.16 2.16Q-46.60 1.83-47.56 1.46Q-48.52 1.08-49.21 0.28Q-49.91-0.52-49.91-1.89L-49.91-1.89Q-49.91-3.04-49.27-3.99Q-48.64-4.94-47.40-5.49Q-46.16-6.04-44.46-6.04L-44.46-6.04Q-41.94-6.04-40.49-4.80Q-39.04-3.55-38.82-1.48L-38.82-1.48L-42.61-1.48Q-42.71-2.18-43.22-2.59Q-43.74-3.00-44.58-3.00L-44.58-3.00Q-45.30-3.00-45.68-2.72Q-46.07-2.44-46.07-1.96L-46.07-1.96Q-46.07-1.39-45.46-1.10Q-44.84-0.81-43.55-0.52L-43.55-0.52Q-42.06-0.14-41.12 0.23Q-40.19 0.60-39.48 1.43Q-38.77 2.26-38.75 3.65L-38.75 3.65Q-38.75 4.83-39.41 5.75Q-40.07 6.68-41.30 7.20Q-42.54 7.73-44.17 7.73L-44.17 7.73ZM-30.23 4.06L-28.76 4.06L-28.76 7.54L-30.85 7.54Q-33.08 7.54-34.33 6.45Q-35.58 5.36-35.58 2.88L-35.58 2.88L-35.58-2.44L-37.21-2.44L-37.21-5.85L-35.58-5.85L-35.58-9.12L-31.48-9.12L-31.48-5.85L-28.79-5.85L-28.79-2.44L-31.48-2.44L-31.48 2.93Q-31.48 3.53-31.19 3.80Q-30.90 4.06-30.23 4.06L-30.23 4.06ZM-17.36-5.85L-13.26-5.85L-13.26 7.54L-17.36 7.54L-17.36 5.72Q-17.99 6.60-19.06 7.14Q-20.12 7.68-21.42 7.68L-21.42 7.68Q-22.96 7.68-24.13 7.00Q-25.31 6.32-25.96 5.02Q-26.60 3.72-26.60 1.97L-26.60 1.97L-26.60-5.85L-22.52-5.85L-22.52 1.42Q-22.52 2.76-21.83 3.51Q-21.13 4.25-19.96 4.25L-19.96 4.25Q-18.76 4.25-18.06 3.51Q-17.36 2.76-17.36 1.42L-17.36 1.42L-17.36-5.85ZM-6.20-3.96Q-5.63-4.89-4.55-5.47Q-3.47-6.04-2.08-6.04L-2.08-6.04Q-0.42-6.04 0.92-5.20Q2.27-4.36 3.05-2.80Q3.83-1.24 3.83 0.82L3.83 0.82Q3.83 2.88 3.05 4.46Q2.27 6.03 0.92 6.88Q-0.42 7.73-2.08 7.73L-2.08 7.73Q-3.49 7.73-4.55 7.17Q-5.60 6.60-6.20 5.67L-6.20 5.67L-6.20 7.54L-10.31 7.54L-10.31-10.22L-6.20-10.22L-6.20-3.96ZM-0.35 0.82Q-0.35-0.72-1.20-1.59Q-2.05-2.47-3.30-2.47L-3.30-2.47Q-4.52-2.47-5.38-1.58Q-6.23-0.69-6.23 0.84L-6.23 0.84Q-6.23 2.38-5.38 3.27Q-4.52 4.16-3.30 4.16L-3.30 4.16Q-2.08 4.16-1.21 3.26Q-0.35 2.36-0.35 0.82L-0.35 0.82ZM14.22-6.00Q16.52-6.00 17.92-4.47Q19.31-2.95 19.31-0.28L19.31-0.28L19.31 7.54L15.23 7.54L15.23 0.27Q15.23-1.08 14.53-1.82Q13.84-2.56 12.66-2.56L12.66-2.56Q11.48-2.56 10.79-1.82Q10.09-1.08 10.09 0.27L10.09 0.27L10.09 7.54L5.99 7.54L5.99-10.22L10.09-10.22L10.09-4.05Q10.72-4.94 11.80-5.47Q12.88-6.00 14.22-6.00L14.22-6.00ZM40.09-3.88Q40.09-2.42 39.42-1.21Q38.75 0.00 37.36 0.75Q35.96 1.49 33.90 1.49L33.90 1.49L31.36 1.49L31.36 7.54L27.25 7.54L27.25-9.31L33.90-9.31Q35.92-9.31 37.31-8.61Q38.70-7.92 39.40-6.69Q40.09-5.47 40.09-3.88L40.09-3.88ZM33.59-1.77Q34.76-1.77 35.34-2.32Q35.92-2.88 35.92-3.88L35.92-3.88Q35.92-4.89 35.34-5.44Q34.76-6.00 33.59-6.00L33.59-6.00L31.36-6.00L31.36-1.77L33.59-1.77ZM41.41 0.82Q41.41-1.24 42.19-2.80Q42.97-4.36 44.32-5.20Q45.66-6.04 47.32-6.04L47.32-6.04Q48.73-6.04 49.80-5.47Q50.87-4.89 51.44-3.96L51.44-3.96L51.44-5.85L55.55-5.85L55.55 7.54L51.44 7.54L51.44 5.64Q50.84 6.58 49.78 7.16Q48.71 7.73 47.29 7.73L47.29 7.73Q45.66 7.73 44.32 6.88Q42.97 6.03 42.19 4.46Q41.41 2.88 41.41 0.82L41.41 0.82ZM51.44 0.84Q51.44-0.69 50.59-1.58Q49.74-2.47 48.52-2.47L48.52-2.47Q47.29-2.47 46.44-1.59Q45.59-0.72 45.59 0.82L45.59 0.82Q45.59 2.36 46.44 3.26Q47.29 4.16 48.52 4.16L48.52 4.16Q49.74 4.16 50.59 3.27Q51.44 2.38 51.44 0.84L51.44 0.84ZM64.52 4.06L65.99 4.06L65.99 7.54L63.90 7.54Q61.67 7.54 60.42 6.45Q59.17 5.36 59.17 2.88L59.17 2.88L59.17-2.44L57.54-2.44L57.54-5.85L59.17-5.85L59.17-9.12L63.28-9.12L63.28-5.85L65.96-5.85L65.96-2.44L63.28-2.44L63.28 2.93Q63.28 3.53 63.56 3.80Q63.85 4.06 64.52 4.06L64.52 4.06ZM77.39-5.85L81.49-5.85L81.49 7.54L77.39 7.54L77.39 5.72Q76.76 6.60 75.70 7.14Q74.63 7.68 73.33 7.68L73.33 7.68Q71.80 7.68 70.62 7.00Q69.44 6.32 68.80 5.02Q68.15 3.72 68.15 1.97L68.15 1.97L68.15-5.85L72.23-5.85L72.23 1.42Q72.23 2.76 72.92 3.51Q73.62 4.25 74.80 4.25L74.80 4.25Q76.00 4.25 76.69 3.51Q77.39 2.76 77.39 1.42L77.39 1.42L77.39-5.85ZM88.55-3.62Q89.27-4.72 90.35-5.36Q91.43-6.00 92.75-6.00L92.75-6.00L92.75-1.65L91.62-1.65Q90.08-1.65 89.32-0.99Q88.55-0.33 88.55 1.32L88.55 1.32L88.55 7.54L84.44 7.54L84.44-5.85L88.55-5.85L88.55-3.62ZM96.78-7.24Q95.70-7.24 95.02-7.88Q94.33-8.52 94.33-9.45L94.33-9.45Q94.33-10.41 95.02-11.05Q95.70-11.68 96.78-11.68L96.78-11.68Q97.84-11.68 98.52-11.05Q99.20-10.41 99.20-9.45L99.20-9.45Q99.20-8.52 98.52-7.88Q97.84-7.24 96.78-7.24L96.78-7.24ZM94.72-5.85L98.82-5.85L98.82 7.54L94.72 7.54L94.72-5.85Z"/></g>
</svg>