<svg xmlns="http://www.w3.org/2000/svg" xmlns:xlink="http://www.w3.org/1999/xlink" version="1.1" width="1000" height="1000" viewBox="0 0 1000 1000" xml:space="preserve">
<desc>Created with Fabric.js 3.5.0</desc>
<defs>
</defs>
<rect x="0" y="0" width="100%" height="100%" fill="rgba(255,255,255,0)"/>
<g transform="matrix(1 0 0 1 598.5561 502.1773)" style="" id="12709">
		
<path xml:space="preserve" font-family="Poppins" font-size="159" font-style="normal" font-weight="bold" style="stroke: none; stroke-width: 1; stroke-dasharray: none; stroke-linecap: butt; stroke-dashoffset: 0; stroke-linejoin: miter; stroke-miterlimit: 4; is-custom-font: none; font-file-url: none; fill: rgb(0,0,0); fill-rule: nonzero; opacity: 1; white-space: pre;" d="M-285.96-39.89L-327.14-39.89L-327.14-17.31L-290.73-17.31L-290.73 3.68L-327.14 3.68L-327.14 28.17L-285.96 28.17L-285.96 49.95L-354.33 49.95L-354.33-61.67L-285.96-61.67L-285.96-39.89ZM-247.64-38.77L-228.40 24.51L-209.16-38.77L-180.23-38.77L-211.71 49.95L-245.26 49.95L-276.74-38.77L-247.64-38.77ZM-85.14 4.16Q-85.14 7.97-85.62 12.11L-85.62 12.11L-147.15 12.11Q-146.52 20.37-141.83 24.75Q-137.14 29.12-130.30 29.12L-130.30 29.12Q-120.12 29.12-116.15 20.53L-116.15 20.53L-87.21 20.53Q-89.44 29.28-95.24 36.27Q-101.04 43.27-109.79 47.25Q-118.53 51.22-129.35 51.22L-129.35 51.22Q-142.38 51.22-152.56 45.66Q-162.74 40.09-168.46 29.76Q-174.18 19.42-174.18 5.59L-174.18 5.59Q-174.18-8.25-168.54-18.58Q-162.90-28.92-152.72-34.48Q-142.54-40.05-129.35-40.05L-129.35-40.05Q-116.47-40.05-106.45-34.64Q-96.43-29.23-90.79-19.22Q-85.14-9.20-85.14 4.16L-85.14 4.16ZM-147.00-3.00L-112.97-3.00Q-112.97-9.99-117.74-14.13Q-122.51-18.26-129.66-18.26L-129.66-18.26Q-136.50-18.26-141.19-14.29Q-145.88-10.31-147.00-3.00L-147.00-3.00ZM-16.77-39.73Q-1.19-39.73 8.11-29.63Q17.41-19.53 17.41-1.89L17.41-1.89L17.41 49.95L-9.62 49.95L-9.62 1.77Q-9.62-7.13-14.23-12.06Q-18.84-16.99-26.63-16.99L-26.63-16.99Q-34.42-16.99-39.03-12.06Q-43.65-7.13-43.65 1.77L-43.65 1.77L-43.65 49.95L-70.83 49.95L-70.83-38.77L-43.65-38.77L-43.65-27.01Q-39.51-32.89-32.52-36.31Q-25.52-39.73-16.77-39.73L-16.77-39.73ZM76.08 26.89L85.78 26.89L85.78 49.95L71.95 49.95Q57.16 49.95 48.89 42.71Q40.62 35.48 40.62 19.10L40.62 19.10L40.62-16.20L29.81-16.20L29.81-38.77L40.62-38.77L40.62-60.40L67.81-60.40L67.81-38.77L85.62-38.77L85.62-16.20L67.81-16.20L67.81 19.42Q67.81 23.40 69.72 25.14Q71.63 26.89 76.08 26.89L76.08 26.89ZM161.31-38.77L188.49-38.77L188.49 49.95L161.31 49.95L161.31 37.86Q157.17 43.75 150.10 47.32Q143.02 50.90 134.43 50.90L134.43 50.90Q124.26 50.90 116.47 46.37Q108.68 41.84 104.38 33.25Q100.09 24.67 100.09 13.06L100.09 13.06L100.09-38.77L127.12-38.77L127.12 9.40Q127.12 18.31 131.73 23.24Q136.34 28.17 144.13 28.17L144.13 28.17Q152.08 28.17 156.69 23.24Q161.31 18.31 161.31 9.40L161.31 9.40L161.31-38.77ZM235.24-23.99Q240.01-31.30 247.17-35.51Q254.32-39.73 263.07-39.73L263.07-39.73L263.07-10.95L255.59-10.95Q245.42-10.95 240.33-6.58Q235.24-2.20 235.24 8.77L235.24 8.77L235.24 49.95L208.05 49.95L208.05-38.77L235.24-38.77L235.24-23.99ZM359.74 4.16Q359.74 7.97 359.26 12.11L359.26 12.11L297.73 12.11Q298.36 20.37 303.05 24.75Q307.74 29.12 314.58 29.12L314.58 29.12Q324.76 29.12 328.73 20.53L328.73 20.53L357.67 20.53Q355.44 29.28 349.64 36.27Q343.84 43.27 335.09 47.25Q326.35 51.22 315.54 51.22L315.54 51.22Q302.50 51.22 292.32 45.66Q282.15 40.09 276.42 29.76Q270.70 19.42 270.70 5.59L270.70 5.59Q270.70-8.25 276.34-18.58Q281.99-28.92 292.16-34.48Q302.34-40.05 315.54-40.05L315.54-40.05Q328.41-40.05 338.43-34.64Q348.45-29.23 354.09-19.22Q359.74-9.20 359.74 4.16L359.74 4.16ZM297.89-3.00L331.91-3.00Q331.91-9.99 327.14-14.13Q322.37-18.26 315.22-18.26L315.22-18.26Q308.38-18.26 303.69-14.29Q299.00-10.31 297.89-3.00L297.89-3.00Z"/></g>
<g transform="matrix(0.8713 0 0 0.8713 113.8902 500.0002)" id="920409">
<g style="">
		<g transform="matrix(1.755 0 0 1.755 -52.5332 -0.0001)" id="725713">
<path style="stroke: none; stroke-width: 1; stroke-dasharray: none; stroke-linecap: butt; stroke-dashoffset: 0; stroke-linejoin: miter; stroke-miterlimit: 4; is-custom-font: none; font-file-url: none; fill: rgb(250,119,108); fill-rule: nonzero; opacity: 1;" transform=" translate(-25, -60)" d="M -0.00000308811 27.6619 C -0.00000172904 19.889 8.47971 15.0878 15.145 19.087 L 40.2899 34.174 C 46.314 37.7884 50 44.2986 50 51.3238 L 50 68.6762 C 50 75.7015 46.314 82.2116 40.2899 85.8261 L 15.1449 100.913 C 8.47968 104.912 -0.0000157555 100.111 -0.0000143965 92.3381 L -0.00000308811 27.6619 Z" stroke-linecap="round"/>
</g>
		<g transform="matrix(1.755 0 0 1.755 13.7341 -78.9751)" id="181588">
<path style="stroke: none; stroke-width: 1; stroke-dasharray: none; stroke-linecap: butt; stroke-dashoffset: 0; stroke-linejoin: miter; stroke-miterlimit: 4; is-custom-font: none; font-file-url: none; fill: rgb(98,76,245); fill-rule: nonzero; opacity: 1;" transform=" translate(-62.7592, -15)" d="M 103.855 -0.00000300576 C 109.151 -0.00000188027 111.85 6.36198 108.169 10.1701 L 94.8962 23.9004 C 91.1279 27.7987 85.9383 30 80.5165 30 L 55.5397 30 C 51.9148 30 48.3581 29.0148 45.2498 27.1498 L 18.5749 11.1449 C 13.3568 8.01404 15.5766 -0.0000217645 21.6619 -0.0000204714 L 103.855 -0.00000300576 Z" stroke-linecap="round"/>
</g>
		<g transform="matrix(1.755 0 0 1.755 13.7341 78.9751)" id="909114">
<path style="stroke: none; stroke-width: 1; stroke-dasharray: none; stroke-linecap: butt; stroke-dashoffset: 0; stroke-linejoin: miter; stroke-miterlimit: 4; is-custom-font: none; font-file-url: none; fill: rgb(98,76,245); fill-rule: nonzero; opacity: 1;" transform=" translate(-62.7592, -105)" d="M 103.855 120 C 109.151 120 111.85 113.638 108.169 109.83 L 94.8962 96.0995 C 91.1279 92.2013 85.9384 90 80.5165 90 L 55.5397 90 C 51.9148 90 48.3581 90.9851 45.2498 92.8501 L 18.5749 108.855 C 13.3568 111.986 15.5766 120 21.6619 120 L 103.855 120 Z" stroke-linecap="round"/>
</g>
		<g transform="matrix(1.755 0 0 1.755 28.1969 0)" id="860682">
<rect style="stroke: none; stroke-width: 1; stroke-dasharray: none; stroke-linecap: butt; stroke-dashoffset: 0; stroke-linejoin: miter; stroke-miterlimit: 4; is-custom-font: none; font-file-url: none; fill: rgb(250,119,108); fill-rule: nonzero; opacity: 1;" x="-15" y="-15" rx="15" ry="15" width="30" height="30"/>
</g>
</g>
</g>
</svg>